<svg class="w-5 h-5" xmlns="http://www.w3.org/2000/svg" id="bit1Cube" viewBox="0 0 16 20"><g fill="none"><path d="M16 5.897c0-.82-.44-1.576-1.151-1.983L9.134.648a2.286 2.286 0 0 0-2.268 0L1.152 3.914A2.286 2.286 0 0 0 0 5.898v7.633c0 .82.439 1.576 1.15 1.984h.002l5.714 3.266l.002.001c.702.4 1.562.4 2.264 0l.002-.001l5.714-3.265l.002-.002A2.286 2.286 0 0 0 16 13.531V5.897z" fill="#8153E1"></path><path d="M16 5.896v7.635c0 .82-.44 1.577-1.152 1.984L9.134 18.78c-.351.201-.743.301-1.134.301V9.143l7.69-4.395c.2.343.31.737.31 1.148z" fill="#AB88F3"></path><path d="M15.688 4.749l-7.69 4.394L.308 4.75c.198-.342.486-.632.841-.835L6.864.648a2.286 2.286 0 0 1 2.268 0l5.714 3.266c.355.203.643.493.842.835z" fill="#D4CCF5"></path></g></svg>